<svg width="454" height="92" viewBox="0 0 454 92" fill="none" xmlns="http://www.w3.org/2000/svg">
<path d="M116.24 69.64C109.328 69.64 103.824 66.888 100.368 62.792L104.656 58.184C107.792 61.64 111.76 63.496 116.112 63.496C121.488 63.496 124.688 60.616 124.688 56.52C124.688 53.064 122.384 51.144 117.392 49.608L112.912 48.264C105.808 46.152 101.776 42.12 101.776 36.04C101.776 28.232 107.728 23.56 115.664 23.56C121.872 23.56 126.736 25.928 130.32 29.448L126.16 34.312C123.024 31.112 119.504 29.704 115.664 29.704C111.44 29.704 108.304 31.816 108.304 35.592C108.304 38.92 110.608 40.84 115.28 42.184L119.952 43.528C127.248 45.64 131.344 49.096 131.344 55.944C131.344 64.712 124.624 69.64 116.24 69.64ZM151.995 63.88C153.723 63.88 155.259 63.624 156.731 63.112V68.744C155.003 69.32 152.955 69.64 151.163 69.64C145.083 69.64 140.283 66.696 140.283 58.12V40.968H134.587V35.464H140.283V27.336H146.427V35.464H156.027V40.968H146.427V58.12C146.427 62.408 148.795 63.88 151.995 63.88ZM171.448 69.64C164.856 69.64 160.376 65.608 160.376 59.144C160.376 52.872 164.92 48.584 173.176 48.584H182.2V47.496C182.2 42.44 179.064 40.52 174.776 40.52C170.872 40.52 167.992 42.184 165.048 44.808L161.528 40.264C164.728 37.256 169.272 34.824 174.904 34.824C182.776 34.824 188.344 38.664 188.344 47.496V69H182.2V64.776L181.368 64.456C179.256 67.656 175.928 69.64 171.448 69.64ZM172.92 64.072C176.888 64.072 180.088 62.088 182.2 59.208V53.576H173.112C168.696 53.576 166.584 55.816 166.584 58.952C166.584 61.832 168.76 64.072 172.92 64.072ZM203.816 69H197.672V35.464H203.816V40.648L204.648 40.904C206.44 37.384 209.896 34.824 214.824 34.824C222.248 34.824 226.856 39.368 226.856 47.496V69H220.712V48.648C220.712 42.952 217.896 40.584 213.288 40.584C209.128 40.584 205.672 42.888 203.816 46.28V69ZM248.34 69.64C240.02 69.64 233.876 63.752 233.876 52.68C233.876 40.776 241.364 34.824 250.772 34.824C253.46 34.824 256.404 35.464 258.708 36.488V23.56H264.852V69H258.708V64.456L257.812 64.2C255.7 68.04 252.308 69.64 248.34 69.64ZM249.364 63.816C253.908 63.816 256.596 61.896 258.708 58.632V42.248C256.468 41.224 253.972 40.648 250.964 40.648C244.18 40.648 240.148 45 240.148 52.68C240.148 59.208 243.796 63.816 249.364 63.816ZM283.198 69.64C276.606 69.64 272.126 65.608 272.126 59.144C272.126 52.872 276.67 48.584 284.926 48.584H293.95V47.496C293.95 42.44 290.814 40.52 286.526 40.52C282.622 40.52 279.742 42.184 276.798 44.808L273.278 40.264C276.478 37.256 281.022 34.824 286.654 34.824C294.526 34.824 300.094 38.664 300.094 47.496V69H293.95V64.776L293.118 64.456C291.006 67.656 287.678 69.64 283.198 69.64ZM284.67 64.072C288.638 64.072 291.838 62.088 293.95 59.208V53.576H284.862C280.446 53.576 278.334 55.816 278.334 58.952C278.334 61.832 280.51 64.072 284.67 64.072ZM315.566 69H309.422V35.464H315.566V40.776L316.398 41.032C318.574 37.256 321.134 34.824 325.87 34.824C326.83 34.824 327.79 34.888 328.622 35.144V41.672C327.47 41.288 326.062 41.096 324.59 41.096C320.174 41.096 317.23 43.72 315.566 47.304V69ZM344.59 69.64C336.27 69.64 330.126 63.752 330.126 52.68C330.126 40.776 337.614 34.824 347.022 34.824C349.71 34.824 352.654 35.464 354.958 36.488V23.56H361.102V69H354.958V64.456L354.062 64.2C351.95 68.04 348.558 69.64 344.59 69.64ZM345.614 63.816C350.158 63.816 352.846 61.896 354.958 58.632V42.248C352.718 41.224 350.222 40.648 347.214 40.648C340.43 40.648 336.398 45 336.398 52.68C336.398 59.208 340.046 63.816 345.614 63.816ZM398.844 69H370.748V24.2H377.34V62.792H398.844V69ZM411.383 29.576H404.855V23.048H411.383V29.576ZM411.191 69H405.047V35.464H411.191V69ZM436.485 69.64C431.877 69.64 429.061 67.976 427.461 66.12L426.629 66.44V69H420.485V23.56H426.629V40.008L427.461 40.264C429.317 36.872 432.389 34.824 437.061 34.824C445.253 34.824 451.141 41.032 451.141 51.976C451.141 63.496 444.549 69.64 436.485 69.64ZM435.013 63.816C441.221 63.816 444.869 59.208 444.869 51.976C444.869 44.744 441.221 40.648 435.653 40.648C431.173 40.648 428.613 42.888 426.629 45.832V59.976C428.485 62.344 431.301 63.816 435.013 63.816Z" fill="black"/>
<path d="M28.875 3V37.4L41.8125 24.5L54.75 37.4V3M3 78.25V13.75C3 10.8989 4.13588 8.16462 6.15776 6.1486C8.17963 4.13259 10.9219 3 13.7812 3H67.6875C68.8312 3 69.9282 3.45303 70.7369 4.25944C71.5457 5.06585 72 6.15957 72 7.3V84.7C72 85.8404 71.5457 86.9342 70.7369 87.7406C69.9282 88.547 68.8312 89 67.6875 89H13.7812C10.9219 89 8.17963 87.8674 6.15776 85.8514C4.13588 83.8354 3 81.1011 3 78.25ZM3 78.25C3 75.3989 4.13588 72.6646 6.15776 70.6486C8.17963 68.6326 10.9219 67.5 13.7812 67.5H72" stroke="black" stroke-width="5" stroke-linecap="round" stroke-linejoin="round"/>
<path d="M23.918 82H22.406V80.488H23.918V82ZM26.7039 82H25.3599V72.06H26.7039V82ZM31.2008 82.14C29.6048 82.14 28.6808 81.146 28.6808 79.298V74.664H30.0248V79.032C30.0248 80.334 30.5988 80.88 31.6068 80.88C32.4608 80.88 33.1608 80.376 33.5808 79.634V74.664H34.9248V82H33.5808V80.866L33.3848 80.81C32.9788 81.608 32.2508 82.14 31.2008 82.14ZM38.9416 82.14C37.4996 82.14 36.5196 81.258 36.5196 79.844C36.5196 78.472 37.5136 77.534 39.3196 77.534H41.2936V77.296C41.2936 76.19 40.6076 75.77 39.6696 75.77C38.8156 75.77 38.1856 76.134 37.5416 76.708L36.7716 75.714C37.4716 75.056 38.4656 74.524 39.6976 74.524C41.4196 74.524 42.6376 75.364 42.6376 77.296V82H41.2936V81.076L41.1116 81.006C40.6496 81.706 39.9216 82.14 38.9416 82.14ZM39.2636 80.922C40.1316 80.922 40.8316 80.488 41.2936 79.858V78.626H39.3056C38.3396 78.626 37.8776 79.116 37.8776 79.802C37.8776 80.432 38.3536 80.922 39.2636 80.922ZM47.0876 82.14C45.4916 82.14 44.5676 81.146 44.5676 79.298V74.664H45.9116V79.032C45.9116 80.334 46.4856 80.88 47.4936 80.88C48.3476 80.88 49.0476 80.376 49.4676 79.634V74.664H50.8116V82H49.4676V80.866L49.2716 80.81C48.8656 81.608 48.1376 82.14 47.0876 82.14Z" fill="black"/>
</svg>
